<svg width="18" height="16" viewBox="0 0 18 16" fill="none" xmlns="http://www.w3.org/2000/svg">
<g id="Layer 1">
<path id="Rectangle 4809" d="M17.9986 0.5H0.953125V15.5H17.9986V0.5Z" fill="white"/>
<path id="Path 5380" d="M10.5938 4.9604H9.73388C8.54855 4.9604 7.34447 5.26377 7.15164 6.38239H7.13237V3.78516H4.26562V12.2231H6.96089V10.9147H6.99725C7.30312 11.8057 8.02944 12.3554 9.76888 12.3554H10.6101C14.2418 12.3554 14.6834 11.142 14.6834 9.30304V8.01424C14.6671 6.17501 14.226 4.9604 10.5939 4.9604H10.5938ZM11.8936 9.07448C11.8936 9.87092 11.7597 10.3258 10.3835 10.3258H8.70253C7.57502 10.3258 6.96277 10.0794 6.96277 8.99874V8.29849C6.96277 7.21634 7.55522 6.99047 8.70253 6.99047H10.3846C11.7607 6.99047 11.8951 7.44511 11.8951 8.24187L11.8936 9.07448Z" fill="black"/>
</g>
</svg>
